<svg xmlns="http://www.w3.org/2000/svg" xmlns:xlink="http://www.w3.org/1999/xlink" width="500" zoomAndPan="magnify" viewBox="0 0 375 374.999991" height="500" preserveAspectRatio="xMidYMid meet" version="1.0"><defs><g/><clipPath id="19a6a0803f"><path d="M 133.238281 121.03125 L 241.988281 121.03125 L 241.988281 210.28125 L 133.238281 210.28125 Z M 133.238281 121.03125 " clip-rule="nonzero"/></clipPath></defs><rect x="-37.5" width="450" fill="#ffffff" y="-37.499999" height="449.999989" fill-opacity="1"/><rect x="-37.5" width="450" fill="#ffffff" y="-37.499999" height="449.999989" fill-opacity="1"/><rect x="-37.5" width="450" fill="#333333" y="-37.499999" height="449.999989" fill-opacity="1"/><g clip-path="url(#19a6a0803f)"><path fill="#6e947c" d="M 133.265625 136.480469 C 133.410156 134.726562 133.800781 133.03125 134.433594 131.390625 C 135.328125 129.132812 136.632812 127.144531 138.355469 125.425781 C 140.621094 123.121094 142.515625 122.117188 145.335938 121.726562 C 146.210938 121.644531 147.085938 121.640625 147.960938 121.707031 C 148.742188 121.804688 149.484375 122.023438 150.195312 122.359375 C 151.496094 123 152.402344 123.996094 152.914062 125.347656 C 153.105469 125.882812 153.242188 126.429688 153.320312 126.992188 C 153.402344 127.722656 153.378906 128.453125 153.25 129.179688 C 153.136719 129.753906 152.945312 130.296875 152.671875 130.8125 C 152.398438 131.332031 152.054688 131.796875 151.644531 132.214844 C 151.230469 132.628906 150.769531 132.976562 150.253906 133.257812 C 149.742188 133.539062 149.199219 133.742188 148.625 133.863281 C 147.691406 134.050781 147.148438 133.976562 146.839844 133.617188 C 146.597656 133.332031 146.589844 132.976562 146.824219 132.625 C 147.089844 132.332031 147.375 132.0625 147.679688 131.8125 C 148.480469 131.117188 148.917969 130.683594 149.199219 130.304688 C 149.582031 129.800781 149.839844 129.246094 149.976562 128.632812 C 150.070312 128.066406 150.0625 127.503906 149.960938 126.941406 C 149.726562 126.085938 149.21875 125.566406 148.402344 125.34375 C 147.8125 125.253906 147.226562 125.253906 146.640625 125.34375 C 144.503906 125.800781 142.191406 127.492188 140.550781 129.792969 C 139.425781 131.367188 138.765625 133.113281 138.566406 135.035156 C 138.515625 135.898438 138.535156 136.761719 138.621094 137.621094 C 138.984375 139.925781 139.785156 141.609375 141.226562 143.097656 C 142.359375 144.261719 143.824219 145.144531 145.636719 145.75 C 146.59375 146.070312 148.0625 146.421875 150.128906 146.824219 C 150.738281 146.941406 151.960938 147.1875 152.84375 147.367188 C 156 148.011719 156.917969 148.136719 158.570312 148.136719 C 160.203125 148.136719 161.734375 147.949219 164.089844 147.457031 C 167.503906 146.746094 168.929688 146.523438 171.417969 146.3125 C 174.980469 146.015625 179.464844 146.382812 185.386719 147.457031 C 190.324219 148.355469 191.667969 148.457031 195.140625 148.207031 C 197.816406 148.015625 199.855469 147.625 201.660156 146.957031 C 203.628906 146.226562 204.769531 145.550781 205.855469 144.464844 C 207.058594 143.261719 207.921875 141.804688 208.707031 139.648438 C 209.070312 138.652344 209.546875 137.046875 210.175781 134.707031 C 210.808594 132.347656 211.171875 131.308594 211.789062 130.050781 C 212.300781 128.964844 212.972656 127.984375 213.800781 127.113281 C 215.195312 125.597656 217.722656 123.796875 220.191406 122.5625 C 221.335938 121.996094 222.539062 121.601562 223.796875 121.382812 C 225.070312 121.199219 226.332031 121.25 227.585938 121.539062 C 228.503906 121.773438 229.027344 122.046875 230.476562 123.050781 C 230.648438 123.171875 230.832031 123.277344 231.023438 123.367188 C 231.515625 123.554688 232.652344 123.457031 234.125 123.097656 C 235.640625 122.675781 237.109375 122.128906 238.53125 121.464844 C 239.273438 121.105469 239.449219 121.046875 239.746094 121.046875 C 240.121094 121.035156 240.40625 121.191406 240.59375 121.515625 C 240.765625 121.777344 240.84375 122.121094 240.929688 122.996094 C 240.980469 123.714844 241.109375 124.414062 241.316406 125.101562 C 241.574219 126.019531 241.90625 127.40625 241.953125 127.765625 C 241.980469 128.082031 241.988281 128.398438 241.976562 128.714844 C 241.980469 129.078125 241.945312 129.433594 241.863281 129.789062 C 241.660156 130.84375 241.210938 131.78125 240.511719 132.601562 C 239.402344 133.992188 237.402344 135.488281 235.652344 136.242188 C 235.371094 136.332031 235.128906 136.484375 234.921875 136.691406 C 234.296875 137.296875 233.695312 138.464844 233.242188 139.957031 C 232.777344 141.367188 232.566406 142.8125 232.613281 144.292969 C 232.621094 145.433594 232.605469 145.574219 232.429688 145.914062 C 232.246094 146.199219 232.015625 146.4375 231.734375 146.625 C 230.917969 147.171875 230.023438 147.394531 229.046875 147.292969 C 228.765625 147.273438 228.535156 147.257812 228.53125 147.261719 C 228.539062 147.363281 228.554688 147.464844 228.578125 147.5625 C 228.652344 148.039062 228.625 148.507812 228.492188 148.96875 C 228.277344 149.808594 228.011719 150.253906 227.417969 150.800781 C 226.882812 151.269531 226.394531 151.773438 225.941406 152.320312 C 225.40625 153.101562 224.957031 153.925781 224.59375 154.800781 C 224.234375 155.765625 224.171875 156.175781 224.167969 157.570312 C 224.167969 159.566406 224.367188 160.578125 225.203125 162.769531 C 226.324219 165.714844 226.085938 168.355469 224.472656 170.929688 C 223.628906 172.257812 222.640625 173.472656 221.507812 174.566406 C 220.582031 175.488281 220.273438 175.765625 218.441406 177.28125 C 216.769531 178.667969 216.367188 179.019531 215.90625 179.503906 C 214.710938 180.796875 213.757812 182.246094 213.046875 183.851562 C 212.652344 184.816406 212.382812 185.808594 212.238281 186.839844 C 212.132812 187.570312 212.074219 188.441406 211.988281 190.4375 C 211.941406 191.5625 211.871094 192.691406 211.742188 194.441406 C 211.546875 197.089844 211.53125 197.371094 211.496094 198.847656 C 211.476562 199.660156 211.441406 200.609375 211.421875 200.953125 C 211.386719 201.59375 211.242188 203.132812 211.179688 203.566406 C 211.160156 203.714844 211.148438 203.863281 211.144531 204.011719 L 211.144531 204.222656 L 211.398438 204.339844 C 211.703125 204.484375 211.734375 204.492188 212.371094 204.628906 C 213.617188 204.894531 214.75 205.421875 215.261719 205.980469 C 215.660156 206.414062 215.851562 206.925781 215.832031 207.511719 C 215.855469 208.042969 215.722656 208.527344 215.4375 208.96875 C 214.882812 209.847656 213.59375 210.289062 211.925781 210.175781 C 211.101562 210.117188 209.140625 209.90625 208.675781 209.824219 C 206.863281 209.5 206.019531 209.054688 205.585938 208.195312 C 205.4375 207.90625 205.359375 207.613281 205.257812 206.957031 C 205.234375 206.777344 205.199219 206.601562 205.15625 206.425781 C 205.140625 206.398438 205.042969 206.414062 204.851562 206.46875 C 203.582031 206.835938 201.246094 207.019531 200.359375 206.820312 C 199.78125 206.726562 199.371094 206.414062 199.125 205.882812 C 198.867188 205.359375 198.851562 204.832031 199.078125 204.125 C 199.222656 203.757812 199.386719 203.402344 199.570312 203.050781 C 200.3125 201.605469 200.523438 200.96875 200.640625 199.816406 C 200.703125 199.21875 200.726562 196.746094 200.679688 196.050781 C 200.601562 194.945312 200.566406 194.574219 200.445312 193.703125 C 200.109375 191.308594 199.9375 189.929688 199.777344 188.402344 C 199.726562 187.929688 199.625 187.066406 199.546875 186.488281 C 199.308594 184.667969 199.257812 183.726562 199.351562 182.625 C 199.382812 182.238281 199.429688 181.777344 199.457031 181.601562 C 199.503906 181.445312 199.503906 181.285156 199.453125 181.128906 C 199.40625 180.972656 199.40625 180.820312 199.460938 180.667969 C 199.476562 180.625 199.453125 180.605469 199.363281 180.589844 C 197.957031 180.363281 197.332031 180.195312 196.304688 179.765625 C 195.4375 179.402344 193.496094 178.472656 192.671875 178.023438 C 190.898438 177.058594 190.574219 176.953125 188.410156 176.65625 C 187.175781 176.488281 186.753906 176.453125 186.382812 176.476562 C 186.207031 176.488281 185.574219 176.515625 184.972656 176.53125 C 183.984375 176.5625 183.035156 176.597656 180.25 176.710938 C 179.746094 176.730469 179.070312 176.769531 178.75 176.796875 C 176.402344 177 175.335938 177.003906 173.164062 176.8125 C 171.027344 176.613281 168.910156 176.273438 166.820312 175.789062 C 166.570312 175.722656 166.320312 175.679688 166.0625 175.660156 L 165.902344 175.671875 L 165.878906 175.988281 C 165.796875 177.007812 165.4375 178.394531 164.925781 179.675781 C 164.128906 181.671875 162.59375 184.113281 160.738281 186.332031 C 160.136719 187.046875 159.84375 187.386719 159.484375 187.773438 L 159.269531 188.003906 L 159.261719 190.5625 C 159.253906 193.75 159.304688 195 159.507812 196.597656 C 159.550781 197.101562 159.652344 197.597656 159.808594 198.085938 C 160 198.648438 160.253906 199.183594 160.570312 199.6875 C 160.972656 200.226562 161.863281 200.824219 163.234375 201.488281 C 163.851562 201.789062 163.933594 201.839844 164.152344 202.054688 C 164.429688 202.3125 164.597656 202.628906 164.660156 203.003906 C 164.785156 203.753906 164.292969 204.394531 163.402344 204.644531 C 162.835938 204.742188 162.273438 204.753906 161.703125 204.683594 C 160.445312 204.53125 159.574219 204.316406 157.003906 203.519531 C 156.335938 203.3125 155.527344 203.074219 155.207031 202.988281 C 154.886719 202.90625 154.539062 202.804688 154.4375 202.765625 C 154.351562 202.730469 154.261719 202.707031 154.171875 202.695312 C 154.050781 202.675781 153.929688 202.648438 153.8125 202.613281 C 153.71875 202.578125 153.617188 202.554688 153.519531 202.542969 C 153.496094 202.5625 154.261719 203.558594 154.703125 204.085938 C 155.058594 204.515625 155.84375 205.316406 156.765625 206.203125 C 157.582031 206.984375 157.851562 207.488281 157.804688 208.136719 C 157.792969 208.320312 157.746094 208.496094 157.65625 208.660156 C 157.460938 209.054688 157.160156 209.335938 156.75 209.503906 C 156.152344 209.792969 155.527344 209.898438 154.867188 209.824219 C 154.167969 209.757812 153.546875 209.597656 151.457031 208.949219 C 149.089844 208.210938 148.546875 207.992188 147.757812 207.460938 C 146.996094 206.976562 146.5 206.296875 146.269531 205.421875 C 146.140625 204.910156 146.117188 204.507812 146.136719 203.234375 C 146.167969 201.363281 146.09375 200.691406 145.636719 198.761719 C 145.058594 196.332031 144.835938 194.972656 144.835938 193.847656 C 144.835938 192.5 145.046875 191.328125 145.5625 189.789062 C 146.035156 188.386719 146.539062 187.304688 148.289062 183.890625 C 149.511719 181.511719 149.824219 180.503906 149.824219 178.921875 C 149.832031 178.234375 149.75 177.558594 149.578125 176.894531 C 149.261719 175.527344 148.898438 174.734375 147.46875 172.285156 C 146.546875 170.710938 145.933594 169.441406 145.601562 168.441406 C 144.875 166.253906 144.949219 163.707031 145.828125 160.816406 C 146.109375 159.898438 146.332031 159.335938 147.035156 157.761719 C 147.867188 155.90625 147.992188 155.410156 147.789062 154.851562 C 147.519531 154.113281 146.832031 153.585938 145.40625 153.023438 C 145.222656 152.949219 144.476562 152.691406 143.75 152.453125 C 142.113281 151.910156 141.535156 151.6875 140.652344 151.25 C 139.40625 150.667969 138.304688 149.882812 137.351562 148.890625 C 135.820312 147.289062 134.757812 145.421875 134.164062 143.289062 C 133.777344 141.9375 133.5 140.5625 133.332031 139.167969 C 133.277344 138.683594 133.234375 136.882812 133.265625 136.480469 Z M 134.621094 138.519531 C 134.757812 140.402344 135.339844 142.933594 135.976562 144.417969 C 136.878906 146.519531 138.257812 148.226562 139.960938 149.335938 C 141.070312 150.0625 142.007812 150.476562 144.144531 151.179688 C 145.640625 151.675781 146.183594 151.882812 146.851562 152.214844 C 147.734375 152.652344 148.3125 153.125 148.695312 153.710938 C 149.316406 154.664062 149.363281 155.53125 148.863281 156.878906 C 148.789062 157.074219 148.488281 157.773438 148.199219 158.429688 C 147.578125 159.832031 147.46875 160.101562 147.21875 160.855469 C 146.402344 163.304688 146.226562 165.726562 146.730469 167.570312 C 146.996094 168.554688 147.558594 169.777344 148.417969 171.265625 C 148.648438 171.660156 148.980469 172.230469 149.152344 172.527344 C 150.105469 174.171875 150.582031 175.296875 150.882812 176.601562 C 151.070312 177.347656 151.164062 178.101562 151.160156 178.867188 C 151.179688 179.8125 151.042969 180.730469 150.742188 181.625 C 150.445312 182.546875 149.992188 183.523438 148.914062 185.585938 C 146.511719 190.171875 145.882812 192.507812 146.285156 195.289062 C 146.386719 195.972656 146.621094 197.128906 146.917969 198.394531 C 147.304688 200.039062 147.425781 200.785156 147.472656 201.859375 L 147.496094 202.375 L 147.710938 202.179688 C 148.488281 201.476562 149.613281 201.003906 150.964844 200.8125 L 151.074219 200.796875 L 150.992188 200.546875 C 150.742188 199.816406 150.617188 199.0625 150.617188 198.289062 C 150.625 197.140625 150.902344 196.0625 151.445312 195.050781 C 152.296875 193.359375 153.3125 192.128906 156.542969 188.875 C 158.214844 187.195312 158.5625 186.828125 159.292969 185.980469 C 161.644531 183.246094 163.25 180.625 164.023438 178.269531 C 164.25 177.574219 164.558594 176.21875 164.503906 176.164062 C 164.390625 176.191406 164.28125 176.230469 164.171875 176.285156 C 163.4375 176.597656 162.667969 176.800781 161.871094 176.886719 C 161.089844 176.949219 160.335938 176.835938 159.609375 176.539062 C 158.589844 176.140625 158.003906 175.550781 157.878906 174.785156 C 157.824219 174.429688 157.878906 174.09375 158.039062 173.773438 C 158.199219 173.449219 158.4375 173.203125 158.75 173.027344 C 159.09375 172.847656 159.460938 172.765625 159.847656 172.777344 L 160.351562 172.757812 L 160.234375 172.59375 C 160.042969 172.308594 159.90625 171.996094 159.832031 171.660156 C 159.632812 170.683594 160.34375 169.828125 161.476562 169.6875 C 162.601562 169.546875 164.046875 170.332031 164.835938 171.511719 C 165.242188 172.144531 165.527344 172.820312 165.695312 173.550781 C 165.710938 173.648438 165.738281 173.738281 165.78125 173.828125 C 165.941406 173.71875 166.097656 173.601562 166.242188 173.476562 C 168.128906 171.945312 169.382812 171.121094 171.171875 170.234375 C 175.1875 168.238281 178.515625 167.441406 182.25 167.582031 C 185.175781 167.683594 187.980469 168.320312 190.664062 169.480469 C 191.675781 169.90625 192.636719 170.425781 193.546875 171.039062 C 195.152344 172.089844 196.242188 173.074219 197.167969 174.300781 C 197.652344 174.945312 198.015625 175.546875 198.84375 177.078125 C 199.175781 177.71875 199.542969 178.34375 199.945312 178.945312 C 200.152344 179.253906 200.203125 179.308594 200.28125 179.308594 C 200.453125 179.308594 200.582031 179.25 200.859375 179.054688 C 201.144531 178.859375 201.445312 178.691406 201.761719 178.546875 C 201.765625 178.542969 201.738281 178.070312 201.699219 177.492188 C 201.660156 176.917969 201.609375 176.152344 201.589844 175.796875 C 201.535156 174.832031 201.464844 174.066406 201.359375 173.320312 C 201.296875 172.957031 201.269531 172.597656 201.285156 172.230469 C 201.328125 171.285156 201.632812 170.617188 202.105469 170.4375 C 202.332031 170.363281 202.554688 170.378906 202.773438 170.476562 C 203.078125 170.617188 203.59375 171.246094 203.894531 171.847656 C 204.320312 172.695312 204.550781 173.890625 204.507812 175.039062 C 204.480469 176.117188 204.246094 177.148438 203.8125 178.136719 C 203.761719 178.238281 203.71875 178.339844 203.679688 178.445312 C 203.683594 178.449219 203.792969 178.503906 203.921875 178.5625 C 204.226562 178.703125 204.460938 178.917969 204.625 179.207031 C 204.742188 179.417969 204.746094 179.449219 204.746094 179.78125 C 204.773438 180 204.730469 180.207031 204.617188 180.394531 C 204.519531 180.582031 204.402344 180.75 204.261719 180.902344 C 204.027344 181.152344 203.757812 181.351562 203.453125 181.503906 C 203.382812 181.527344 203.378906 181.542969 203.402344 181.867188 C 203.414062 182.050781 203.449219 182.65625 203.476562 183.207031 C 203.523438 184.613281 203.699219 186.007812 204.003906 187.382812 C 204.472656 189.730469 204.820312 192.09375 205.042969 194.476562 C 205.261719 196.621094 205.265625 197.347656 205.066406 199.113281 C 204.835938 201.140625 204.851562 201.699219 205.15625 202.625 C 205.246094 202.898438 205.972656 204.609375 206.019531 204.660156 C 206.023438 204.667969 206.425781 204.550781 206.902344 204.40625 C 208.101562 204.039062 208.246094 204 208.730469 203.9375 C 209.054688 203.886719 209.375 203.890625 209.699219 203.945312 C 209.789062 203.960938 209.789062 203.960938 209.832031 203.582031 C 210.03125 202 210.140625 200.410156 210.15625 198.816406 C 210.191406 197.34375 210.207031 197.089844 210.402344 194.40625 C 210.53125 192.640625 210.601562 191.515625 210.648438 190.40625 C 210.789062 187.148438 210.921875 186.089844 211.378906 184.558594 C 211.980469 182.535156 213.5 180.027344 215.089844 178.433594 C 215.574219 177.949219 216.1875 177.414062 217.453125 176.375 C 219.15625 174.972656 220.121094 174.125 220.511719 173.679688 C 220.902344 173.210938 221.234375 172.703125 221.503906 172.160156 C 221.710938 171.765625 221.863281 171.351562 221.96875 170.921875 C 222.042969 170.660156 222.078125 170.394531 222.070312 170.125 C 222.0625 169.3125 221.917969 168.523438 221.632812 167.761719 C 221.273438 166.730469 220.734375 165.671875 219.117188 162.855469 C 217.875 160.683594 217.347656 159.511719 216.976562 158.074219 C 216.621094 156.578125 216.484375 155.0625 216.566406 153.527344 C 216.636719 152.082031 216.726562 151.351562 217.171875 148.6875 C 217.613281 146.03125 217.875 143.753906 217.933594 142.09375 L 217.957031 141.453125 L 217.695312 141.179688 C 217.324219 140.789062 216.503906 139.832031 215.8125 138.972656 C 215.488281 138.570312 215.003906 137.976562 214.738281 137.65625 C 213.753906 136.46875 213.546875 136.15625 213.3125 135.484375 C 213.09375 134.855469 213.023438 134.179688 213.128906 133.777344 C 213.351562 132.953125 214.109375 132.410156 215.039062 132.414062 C 215.71875 132.417969 216.453125 132.777344 217.140625 133.433594 C 217.78125 134.050781 218.378906 135.085938 218.6875 136.113281 C 219.039062 137.449219 219.238281 138.804688 219.28125 140.1875 L 219.316406 140.90625 L 219.519531 141.09375 C 220.539062 141.972656 221.609375 142.789062 222.722656 143.542969 C 223.96875 144.375 224.78125 144.8125 225.734375 145.164062 C 227.203125 145.703125 228.101562 145.910156 229.214844 145.964844 C 229.644531 146.011719 230.054688 145.957031 230.457031 145.796875 C 230.757812 145.675781 231.183594 145.410156 231.234375 145.3125 C 231.332031 145.128906 231.242188 144.75 230.878906 143.847656 C 230.742188 143.503906 230.511719 142.914062 230.371094 142.539062 C 229.945312 141.402344 229.496094 140.273438 229.214844 139.625 C 228.894531 138.875 228.277344 137.539062 228.125 137.253906 L 228.011719 137.046875 L 227.550781 136.863281 C 227.140625 136.714844 226.746094 136.53125 226.367188 136.320312 C 225.230469 135.667969 224.195312 134.886719 223.257812 133.972656 C 221.847656 132.601562 221.003906 131.160156 220.890625 129.933594 C 220.796875 128.914062 221.492188 128.199219 222.4375 128.34375 C 223.726562 128.542969 225.289062 130.070312 227.320312 133.109375 C 227.789062 133.804688 228.214844 134.523438 228.597656 135.269531 L 228.960938 135.953125 L 229.191406 136.015625 C 229.671875 136.144531 230.15625 136.203125 230.652344 136.191406 C 231.777344 136.191406 232.8125 135.945312 234.476562 135.289062 C 235.71875 134.816406 236.851562 134.160156 237.878906 133.316406 C 238.527344 132.816406 239.097656 132.246094 239.601562 131.601562 C 240.097656 130.976562 240.417969 130.277344 240.558594 129.492188 C 240.664062 128.910156 240.675781 128.324219 240.59375 127.738281 C 240.539062 127.414062 240.191406 125.988281 240.125 125.820312 C 240.097656 125.761719 240.058594 125.722656 239.996094 125.703125 C 239.515625 125.488281 239.054688 125.238281 238.609375 124.953125 C 237.925781 124.492188 237.472656 124.058594 237.277344 123.675781 C 237.25 123.609375 237.210938 123.554688 237.164062 123.507812 C 237.082031 123.527344 237 123.558594 236.925781 123.589844 C 236.566406 123.738281 235.269531 124.164062 234.800781 124.292969 C 233.328125 124.703125 231.800781 124.890625 231.082031 124.753906 C 230.472656 124.640625 230.363281 124.582031 228.972656 123.636719 C 228.582031 123.355469 228.164062 123.132812 227.710938 122.96875 C 226.914062 122.703125 226.097656 122.585938 225.261719 122.617188 C 223.4375 122.628906 221.851562 123.121094 219.691406 124.339844 C 218.425781 125.042969 217.230469 125.851562 216.113281 126.769531 C 215.4375 127.351562 214.804688 127.980469 214.222656 128.65625 C 213.496094 129.5625 212.898438 130.667969 212.355469 132.101562 C 212.027344 133.011719 211.742188 133.941406 211.507812 134.882812 C 210.257812 139.542969 209.59375 141.402344 208.585938 143.09375 C 207.65625 144.710938 206.390625 146.003906 204.796875 146.972656 C 203.929688 147.507812 202.425781 148.148438 201.09375 148.546875 C 198.738281 149.257812 195.675781 149.644531 192.410156 149.648438 C 191.351562 149.671875 190.300781 149.601562 189.253906 149.4375 C 188.40625 149.324219 186.539062 149.019531 185.09375 148.757812 C 183.125 148.398438 181.992188 148.21875 180.390625 148.019531 C 176.265625 147.507812 173.640625 147.425781 170.695312 147.71875 C 168.546875 147.9375 167.449219 148.117188 164.386719 148.757812 C 161.574219 149.34375 159.386719 149.574219 157.65625 149.460938 C 156.324219 149.375 155.292969 149.222656 153.324219 148.820312 C 152.664062 148.6875 151.214844 148.394531 150.109375 148.175781 C 147.277344 147.613281 146.105469 147.328125 144.945312 146.917969 C 143.109375 146.273438 141.609375 145.359375 140.398438 144.15625 C 138.644531 142.40625 137.6875 140.40625 137.273438 137.640625 C 137.175781 136.570312 137.183594 135.496094 137.289062 134.425781 C 137.746094 131.527344 138.992188 129.164062 141.199219 127.015625 C 142.832031 125.421875 144.65625 124.390625 146.472656 124.023438 C 147.183594 123.910156 147.894531 123.910156 148.601562 124.023438 C 149.203125 124.144531 149.734375 124.410156 150.191406 124.820312 C 150.648438 125.230469 150.96875 125.726562 151.15625 126.3125 C 151.449219 127.230469 151.476562 128.152344 151.234375 129.085938 C 150.984375 130.144531 150.421875 131.066406 149.445312 132.015625 L 149.089844 132.359375 L 149.300781 132.269531 C 149.960938 131.957031 150.519531 131.519531 150.980469 130.953125 C 151.441406 130.386719 151.753906 129.75 151.917969 129.042969 C 152.003906 128.683594 152.011719 128.582031 152.011719 127.894531 C 152.046875 127.328125 151.976562 126.773438 151.800781 126.230469 C 151.640625 125.632812 151.359375 125.097656 150.960938 124.621094 C 150.566406 124.144531 150.085938 123.773438 149.527344 123.507812 C 148.722656 123.15625 147.882812 122.984375 147.003906 122.988281 C 145.78125 122.949219 144.589844 123.128906 143.433594 123.523438 C 142.824219 123.753906 142.242188 124.035156 141.6875 124.367188 C 139.886719 125.5 137.914062 127.628906 136.683594 129.769531 C 135.5 131.867188 134.808594 134.117188 134.609375 136.515625 C 134.582031 136.9375 134.585938 138.066406 134.621094 138.519531 Z M 147.554688 205.058594 C 147.632812 205.4375 147.816406 205.753906 148.101562 206.015625 C 148.71875 206.632812 149.265625 206.871094 151.996094 207.722656 C 154.21875 208.414062 154.898438 208.558594 155.542969 208.488281 C 155.707031 208.46875 155.871094 208.433594 156.03125 208.378906 C 156.265625 208.292969 156.472656 208.109375 156.472656 207.992188 C 156.472656 207.832031 156.257812 207.558594 155.757812 207.085938 C 154.808594 206.222656 153.9375 205.289062 153.148438 204.28125 C 152.695312 203.71875 152.28125 203.132812 151.902344 202.523438 L 151.660156 202.125 L 151.222656 202.144531 C 150.617188 202.171875 150.042969 202.324219 149.5 202.589844 C 148.71875 202.980469 148.085938 203.542969 147.609375 204.277344 C 147.460938 204.503906 147.449219 204.652344 147.554688 205.058594 Z M 152.019531 199.136719 C 152.105469 199.644531 152.242188 200.136719 152.425781 200.617188 L 152.542969 200.910156 L 153.636719 201.183594 L 153.636719 200.667969 C 153.613281 200.355469 153.652344 200.050781 153.75 199.753906 C 153.953125 199.046875 153.898438 198.777344 153.332031 197.636719 C 152.863281 196.699219 152.816406 196.566406 152.679688 195.722656 L 152.65625 195.585938 L 152.519531 195.882812 C 152.003906 196.914062 151.839844 198 152.019531 199.140625 Z M 154.113281 196.121094 C 154.222656 196.429688 154.355469 196.730469 154.515625 197.015625 C 155.011719 197.972656 155.203125 198.578125 155.203125 199.183594 C 155.207031 199.449219 155.167969 199.707031 155.082031 199.957031 C 155.007812 200.175781 154.96875 200.402344 154.957031 200.632812 C 154.96875 200.949219 155.03125 201.253906 155.144531 201.546875 C 155.269531 201.617188 155.398438 201.664062 155.539062 201.691406 C 155.734375 201.742188 156.421875 201.949219 157.074219 202.148438 C 159.832031 203.003906 160.726562 203.230469 161.871094 203.363281 C 162.390625 203.421875 163.003906 203.394531 163.1875 203.308594 C 163.246094 203.28125 163.296875 203.246094 163.339844 203.191406 C 163.367188 203.105469 163.042969 202.855469 162.691406 202.695312 C 161.578125 202.183594 160.574219 201.5625 159.996094 201.019531 C 159.570312 200.632812 159.25 200.175781 159.023438 199.652344 C 158.546875 198.710938 158.261719 197.71875 158.167969 196.671875 C 157.976562 195.070312 157.917969 193.847656 157.917969 191.316406 L 157.917969 189.402344 L 156.8125 190.507812 C 156.207031 191.117188 155.535156 191.808594 155.324219 192.042969 L 154.933594 192.472656 L 154.683594 193.0625 C 154.210938 194.183594 153.984375 195.078125 154.03125 195.652344 C 154.046875 195.8125 154.074219 195.964844 154.113281 196.121094 Z M 159.21875 174.683594 C 159.351562 175.03125 160.289062 175.464844 161.09375 175.550781 C 161.75 175.597656 162.390625 175.515625 163.011719 175.296875 L 163.363281 175.191406 L 162.746094 174.988281 C 162.40625 174.875 161.8125 174.660156 161.425781 174.503906 C 160.574219 174.164062 160.300781 174.097656 159.820312 174.113281 C 159.539062 174.125 159.453125 174.144531 159.375 174.203125 C 159.1875 174.320312 159.136719 174.480469 159.21875 174.683594 Z M 161.234375 171.679688 C 161.34375 171.910156 161.953125 172.503906 162.34375 172.757812 C 162.878906 173.109375 164.289062 173.78125 164.351562 173.714844 C 164.382812 173.683594 164.160156 173.046875 164 172.714844 C 163.890625 172.507812 163.769531 172.304688 163.632812 172.117188 C 163.089844 171.402344 162.195312 170.921875 161.585938 171.015625 C 161.417969 171.03125 161.277344 171.101562 161.164062 171.222656 C 161.117188 171.382812 161.144531 171.539062 161.234375 171.679688 Z M 168.273438 174.742188 C 171.03125 175.289062 173.226562 175.554688 175.453125 175.605469 C 176.46875 175.628906 177.476562 175.585938 178.484375 175.476562 C 178.933594 175.441406 179.707031 175.394531 180.214844 175.375 C 182.914062 175.265625 183.945312 175.226562 184.9375 175.195312 C 185.539062 175.179688 186.179688 175.152344 186.363281 175.140625 C 186.792969 175.113281 187.347656 175.164062 188.71875 175.355469 C 190.0625 175.546875 190.546875 175.640625 191.121094 175.828125 C 191.972656 176.160156 192.792969 176.554688 193.585938 177.003906 C 194.410156 177.457031 196.457031 178.410156 197.261719 178.710938 C 197.632812 178.859375 198.011719 178.972656 198.402344 179.054688 C 198.339844 178.910156 198.265625 178.773438 198.183594 178.640625 C 198.058594 178.421875 197.78125 177.914062 197.566406 177.519531 C 196.621094 175.769531 196.171875 175.09375 195.394531 174.253906 C 194.183594 172.941406 192.035156 171.496094 190.101562 170.6875 C 187.808594 169.703125 185.417969 169.121094 182.925781 168.945312 C 181.964844 168.894531 181 168.894531 180.035156 168.945312 C 178.488281 169.058594 176.976562 169.363281 175.507812 169.867188 C 173.355469 170.582031 171.320312 171.546875 169.410156 172.765625 C 168.496094 173.359375 167.089844 174.457031 167.171875 174.503906 C 167.195312 174.519531 167.691406 174.625 168.273438 174.742188 Z M 200.34375 205.355469 C 200.472656 205.527344 200.617188 205.550781 201.433594 205.554688 C 202.382812 205.566406 203.320312 205.464844 204.246094 205.25 C 204.410156 205.222656 204.566406 205.171875 204.714844 205.097656 C 204.625 204.820312 204.519531 204.550781 204.394531 204.289062 C 203.515625 202.300781 203.433594 201.65625 203.726562 199.078125 C 203.933594 197.253906 203.925781 196.695312 203.667969 194.1875 C 203.449219 191.9375 203.117188 189.703125 202.667969 187.488281 C 202.355469 186.070312 202.179688 184.636719 202.136719 183.1875 C 202.109375 182.605469 202.074219 182.066406 202.066406 181.988281 L 202.046875 181.84375 L 201.742188 181.824219 C 201.550781 181.808594 201.367188 181.777344 201.1875 181.730469 C 200.746094 181.597656 200.796875 181.5625 200.75 182.015625 C 200.59375 183.558594 200.617188 184.496094 200.867188 186.3125 C 200.980469 187.136719 201.035156 187.582031 201.1875 188.980469 C 201.3125 190.128906 201.515625 191.734375 201.75 193.386719 C 201.988281 194.941406 202.082031 196.503906 202.039062 198.074219 C 202 200.792969 201.847656 201.476562 200.828125 203.519531 C 200.570312 204.042969 200.332031 204.554688 200.304688 204.660156 C 200.230469 204.898438 200.242188 205.128906 200.347656 205.355469 Z M 201.828125 180.496094 C 201.929688 180.5 201.945312 180.488281 201.945312 180.414062 C 201.945312 180.308594 201.9375 180.308594 201.738281 180.382812 C 201.609375 180.433594 201.59375 180.449219 201.648438 180.46875 C 201.707031 180.488281 201.765625 180.496094 201.828125 180.496094 Z M 202.703125 173.265625 C 202.75 173.605469 202.820312 174.308594 202.859375 174.828125 C 202.898438 175.351562 202.945312 175.925781 202.960938 176.113281 L 202.984375 176.445312 L 203.027344 176.21875 C 203.277344 174.921875 203.203125 173.6875 202.820312 172.714844 C 202.773438 172.582031 202.71875 172.457031 202.648438 172.335938 C 202.589844 172.300781 202.609375 172.625 202.699219 173.265625 Z M 203.242188 179.972656 C 203.269531 180.058594 203.269531 180.058594 203.34375 179.9375 C 203.417969 179.824219 203.417969 179.8125 203.363281 179.769531 C 203.230469 179.671875 203.183594 179.75 203.242188 179.972656 Z M 206.597656 206.875 C 206.6875 207.433594 206.742188 207.601562 206.90625 207.789062 C 207.179688 208.105469 208.125 208.414062 209.308594 208.574219 C 209.882812 208.648438 211.347656 208.796875 211.957031 208.839844 C 213.03125 208.917969 213.855469 208.742188 214.226562 208.363281 C 214.429688 208.128906 214.519531 207.855469 214.492188 207.546875 C 214.492188 206.996094 214.324219 206.785156 213.59375 206.433594 C 213.109375 206.203125 212.605469 206.03125 212.082031 205.925781 C 211.503906 205.835938 210.957031 205.65625 210.4375 205.386719 C 210.027344 205.242188 209.605469 205.179688 209.167969 205.203125 C 208.945312 205.230469 208.71875 205.269531 208.5 205.328125 C 208.128906 205.421875 206.742188 205.835938 206.519531 205.921875 L 206.429688 205.957031 L 206.476562 206.195312 C 206.503906 206.328125 206.558594 206.632812 206.597656 206.875 Z M 214.496094 135.007812 C 214.640625 135.585938 214.855469 135.902344 215.761719 136.867188 C 215.980469 137.097656 216.378906 137.566406 216.652344 137.902344 C 217.222656 138.609375 217.828125 139.332031 217.871094 139.355469 C 217.886719 139.367188 217.894531 139.332031 217.886719 139.28125 C 217.628906 136.992188 217.394531 136.109375 216.777344 135.101562 C 216.351562 134.410156 215.726562 133.882812 215.1875 133.761719 C 214.835938 133.683594 214.472656 133.859375 214.421875 134.128906 C 214.390625 134.425781 214.417969 134.71875 214.496094 135.007812 Z M 217.949219 155.796875 C 218.019531 156.679688 218.1875 157.546875 218.457031 158.394531 C 218.828125 159.515625 219.222656 160.355469 220.132812 161.941406 C 221.472656 164.277344 222.316406 165.859375 222.613281 166.574219 C 223.050781 167.570312 223.3125 168.613281 223.398438 169.695312 C 223.425781 170.15625 223.414062 170.167969 223.777344 169.4375 C 224.375 168.28125 224.628906 167.054688 224.542969 165.757812 C 224.464844 164.785156 224.328125 164.230469 223.855469 162.964844 C 223.269531 161.40625 223.054688 160.566406 222.894531 159.203125 C 222.8125 158.191406 222.808594 157.175781 222.878906 156.164062 C 223.046875 154.917969 223.511719 153.703125 224.363281 152.304688 C 224.847656 151.472656 225.457031 150.746094 226.191406 150.125 C 226.421875 149.929688 226.636719 149.722656 226.839844 149.5 C 227.011719 149.230469 227.132812 148.9375 227.203125 148.625 C 227.269531 148.414062 227.292969 148.199219 227.277344 147.976562 C 227.289062 147.597656 227.140625 147.296875 226.835938 147.070312 L 226.585938 146.851562 L 225.816406 146.59375 C 224.746094 146.253906 223.738281 145.785156 222.792969 145.179688 C 221.726562 144.503906 220.703125 143.773438 219.714844 142.984375 C 219.574219 142.863281 219.425781 142.753906 219.269531 142.648438 C 219.261719 142.65625 219.230469 142.984375 219.199219 143.382812 C 219.070312 145.007812 218.824219 146.929688 218.492188 148.875 C 217.988281 151.863281 217.867188 153.039062 217.894531 154.617188 C 217.90625 155.054688 217.925781 155.582031 217.949219 155.796875 Z M 222.355469 130.394531 C 222.597656 131.050781 222.949219 131.644531 223.402344 132.179688 C 224.085938 133.035156 225.535156 134.277344 226.601562 134.921875 C 227.023438 135.175781 227.039062 135.175781 226.917969 134.96875 C 226.183594 133.75 225.367188 132.589844 224.472656 131.480469 C 223.699219 130.539062 222.789062 129.777344 222.304688 129.664062 L 222.203125 129.640625 L 222.226562 129.867188 C 222.253906 130.046875 222.296875 130.222656 222.355469 130.394531 Z M 230.195312 138.542969 C 230.507812 139.238281 230.863281 140.097656 231.203125 140.988281 C 231.320312 141.285156 231.421875 141.546875 231.433594 141.566406 C 231.503906 141.40625 231.550781 141.238281 231.574219 141.066406 C 231.878906 139.660156 232.34375 138.3125 232.78125 137.566406 C 232.898438 137.375 232.988281 137.214844 232.984375 137.210938 C 232.980469 137.207031 232.851562 137.234375 232.699219 137.273438 C 231.773438 137.507812 230.835938 137.582031 229.886719 137.492188 L 229.71875 137.472656 L 229.8125 137.679688 C 229.863281 137.792969 230.035156 138.183594 230.199219 138.542969 Z M 230.195312 138.542969 " fill-opacity="1" fill-rule="nonzero"/></g><g fill="#e5faed" fill-opacity="1"><g transform="translate(99.820846, 195.23004)"><g><path d="M 4.46875 -4.484375 L 1.578125 -4.484375 L 1.578125 -3.0625 L 4.171875 -3.0625 L 4.171875 -2.25 L 1.578125 -2.25 L 1.578125 -0.796875 L 4.5625 -0.796875 L 4.5625 0 L 0.6875 0 L 0.6875 -5.28125 L 4.46875 -5.28125 Z M 4.46875 -4.484375 "/></g></g></g><g fill="#e5faed" fill-opacity="1"><g transform="translate(106.107512, 195.23004)"><g><path d="M 2.4375 -5.328125 C 3.113281 -5.328125 3.726562 -5.144531 4.28125 -4.78125 L 3.90625 -4 C 3.375 -4.320312 2.859375 -4.484375 2.359375 -4.484375 C 2.097656 -4.484375 1.890625 -4.4375 1.734375 -4.34375 C 1.578125 -4.25 1.5 -4.113281 1.5 -3.9375 C 1.5 -3.757812 1.566406 -3.609375 1.703125 -3.484375 C 1.847656 -3.359375 2.023438 -3.265625 2.234375 -3.203125 C 2.453125 -3.148438 2.679688 -3.078125 2.921875 -2.984375 C 3.171875 -2.898438 3.398438 -2.804688 3.609375 -2.703125 C 3.828125 -2.609375 4.003906 -2.457031 4.140625 -2.25 C 4.273438 -2.039062 4.34375 -1.789062 4.34375 -1.5 C 4.34375 -1.03125 4.15625 -0.65625 3.78125 -0.375 C 3.414062 -0.101562 2.941406 0.03125 2.359375 0.03125 C 1.953125 0.03125 1.5625 -0.0390625 1.1875 -0.1875 C 0.8125 -0.34375 0.484375 -0.550781 0.203125 -0.8125 L 0.578125 -1.578125 C 0.847656 -1.328125 1.140625 -1.132812 1.453125 -1 C 1.773438 -0.875 2.082031 -0.8125 2.375 -0.8125 C 2.6875 -0.8125 2.925781 -0.863281 3.09375 -0.96875 C 3.269531 -1.082031 3.359375 -1.242188 3.359375 -1.453125 C 3.359375 -1.628906 3.285156 -1.78125 3.140625 -1.90625 C 3.003906 -2.03125 2.828125 -2.117188 2.609375 -2.171875 C 2.398438 -2.234375 2.171875 -2.304688 1.921875 -2.390625 C 1.679688 -2.472656 1.453125 -2.5625 1.234375 -2.65625 C 1.023438 -2.75 0.847656 -2.894531 0.703125 -3.09375 C 0.566406 -3.300781 0.5 -3.550781 0.5 -3.84375 C 0.5 -4.289062 0.675781 -4.648438 1.03125 -4.921875 C 1.382812 -5.191406 1.851562 -5.328125 2.4375 -5.328125 Z M 2.4375 -5.328125 "/></g></g></g><g fill="#e5faed" fill-opacity="1"><g transform="translate(112.137577, 195.23004)"><g><path d="M 4.296875 -4.484375 L 2.625 -4.484375 L 2.625 0 L 1.734375 0 L 1.734375 -4.484375 L 0.0625 -4.484375 L 0.0625 -5.28125 L 4.296875 -5.28125 Z M 4.296875 -4.484375 "/></g></g></g><g fill="#e5faed" fill-opacity="1"><g transform="translate(117.843118, 195.23004)"><g><path d="M 0.6875 -5.28125 L 2.859375 -5.28125 C 3.648438 -5.28125 4.300781 -5.03125 4.8125 -4.53125 C 5.332031 -4.03125 5.59375 -3.398438 5.59375 -2.640625 C 5.59375 -1.878906 5.332031 -1.25 4.8125 -0.75 C 4.289062 -0.25 3.632812 0 2.84375 0 L 0.6875 0 Z M 1.578125 -4.484375 L 1.578125 -0.796875 L 2.890625 -0.796875 C 3.398438 -0.796875 3.828125 -0.96875 4.171875 -1.3125 C 4.515625 -1.65625 4.6875 -2.09375 4.6875 -2.625 C 4.6875 -3.164062 4.507812 -3.609375 4.15625 -3.953125 C 3.800781 -4.304688 3.363281 -4.484375 2.84375 -4.484375 Z M 1.578125 -4.484375 "/></g></g></g><g fill="#e5faed" fill-opacity="1"><g transform="translate(251.635598, 195.23004)"><g><path d="M 2.171875 -5.328125 C 2.671875 -5.328125 3.078125 -5.203125 3.390625 -4.953125 C 3.703125 -4.710938 3.859375 -4.394531 3.859375 -4 C 3.859375 -3.53125 3.535156 -2.945312 2.890625 -2.25 L 1.515625 -0.796875 L 4.09375 -0.796875 L 4.09375 0 L 0.34375 0 L 0.34375 -0.65625 L 2.28125 -2.734375 C 2.707031 -3.171875 2.921875 -3.546875 2.921875 -3.859375 C 2.921875 -4.078125 2.84375 -4.242188 2.6875 -4.359375 C 2.53125 -4.484375 2.316406 -4.546875 2.046875 -4.546875 C 1.566406 -4.546875 1.085938 -4.320312 0.609375 -3.875 L 0.25 -4.5625 C 0.863281 -5.070312 1.503906 -5.328125 2.171875 -5.328125 Z M 2.171875 -5.328125 "/></g></g></g><g fill="#e5faed" fill-opacity="1"><g transform="translate(257.409063, 195.23004)"><g><path d="M 2.609375 -5.3125 C 3.328125 -5.3125 3.878906 -5.078125 4.265625 -4.609375 C 4.660156 -4.148438 4.859375 -3.492188 4.859375 -2.640625 C 4.859375 -1.785156 4.660156 -1.128906 4.265625 -0.671875 C 3.878906 -0.210938 3.328125 0.015625 2.609375 0.015625 C 1.890625 0.015625 1.332031 -0.210938 0.9375 -0.671875 C 0.550781 -1.128906 0.359375 -1.785156 0.359375 -2.640625 C 0.359375 -3.492188 0.550781 -4.148438 0.9375 -4.609375 C 1.332031 -5.078125 1.890625 -5.3125 2.609375 -5.3125 Z M 2.609375 -4.609375 C 1.722656 -4.609375 1.28125 -3.953125 1.28125 -2.640625 C 1.28125 -1.328125 1.722656 -0.671875 2.609375 -0.671875 C 3.492188 -0.671875 3.9375 -1.328125 3.9375 -2.640625 C 3.9375 -3.953125 3.492188 -4.609375 2.609375 -4.609375 Z M 2.609375 -4.609375 "/></g></g></g><g fill="#e5faed" fill-opacity="1"><g transform="translate(263.959872, 195.23004)"><g><path d="M 2.171875 -5.328125 C 2.671875 -5.328125 3.078125 -5.203125 3.390625 -4.953125 C 3.703125 -4.710938 3.859375 -4.394531 3.859375 -4 C 3.859375 -3.53125 3.535156 -2.945312 2.890625 -2.25 L 1.515625 -0.796875 L 4.09375 -0.796875 L 4.09375 0 L 0.34375 0 L 0.34375 -0.65625 L 2.28125 -2.734375 C 2.707031 -3.171875 2.921875 -3.546875 2.921875 -3.859375 C 2.921875 -4.078125 2.84375 -4.242188 2.6875 -4.359375 C 2.53125 -4.484375 2.316406 -4.546875 2.046875 -4.546875 C 1.566406 -4.546875 1.085938 -4.320312 0.609375 -3.875 L 0.25 -4.5625 C 0.863281 -5.070312 1.503906 -5.328125 2.171875 -5.328125 Z M 2.171875 -5.328125 "/></g></g></g><g fill="#e5faed" fill-opacity="1"><g transform="translate(269.733337, 195.23004)"><g><path d="M 2.171875 -5.328125 C 2.671875 -5.328125 3.078125 -5.203125 3.390625 -4.953125 C 3.703125 -4.710938 3.859375 -4.394531 3.859375 -4 C 3.859375 -3.53125 3.535156 -2.945312 2.890625 -2.25 L 1.515625 -0.796875 L 4.09375 -0.796875 L 4.09375 0 L 0.34375 0 L 0.34375 -0.65625 L 2.28125 -2.734375 C 2.707031 -3.171875 2.921875 -3.546875 2.921875 -3.859375 C 2.921875 -4.078125 2.84375 -4.242188 2.6875 -4.359375 C 2.53125 -4.484375 2.316406 -4.546875 2.046875 -4.546875 C 1.566406 -4.546875 1.085938 -4.320312 0.609375 -3.875 L 0.25 -4.5625 C 0.863281 -5.070312 1.503906 -5.328125 2.171875 -5.328125 Z M 2.171875 -5.328125 "/></g></g></g><g fill="#e5faed" fill-opacity="1"><g transform="translate(92.063975, 236.955335)"><g><path d="M 8.738281 0.109375 C 11.050781 0.109375 15.40625 0.109375 17.230469 0 C 17.636719 -0.0273438 17.882812 -0.300781 17.882812 -0.679688 C 17.828125 -2.042969 17.664062 -5.335938 17.5 -6.722656 C 17.417969 -7.484375 16.601562 -7.566406 16.277344 -6.96875 C 14.96875 -4.816406 13.582031 -4 10.371094 -4 C 7.976562 -4 6.125 -4.734375 6.125 -6.558594 L 6.125 -7.15625 C 6.125 -8.628906 7.402344 -9.144531 9.226562 -9.171875 C 10.585938 -9.199219 12.058594 -8.980469 13.199219 -8.328125 C 13.636719 -7.949219 14.125 -8.136719 14.125 -8.710938 L 14.125 -11.050781 C 14.125 -11.484375 13.746094 -11.785156 13.335938 -11.730469 C 12.003906 -11.621094 10.425781 -11.539062 9.0625 -11.539062 C 7.105469 -11.539062 6.125 -12.113281 6.125 -13.0625 L 6.125 -13.28125 C 6.125 -14.507812 7.511719 -15.132812 9.554688 -15.132812 C 12.273438 -15.132812 14.097656 -14.453125 15.351562 -13.089844 C 15.8125 -12.519531 16.492188 -12.710938 16.464844 -13.417969 C 16.4375 -14.535156 16.359375 -17.203125 16.25 -18.34375 C 16.222656 -18.78125 15.949219 -19.023438 15.515625 -19.050781 C 13.90625 -19.132812 11.078125 -19.160156 8.792969 -19.160156 C 6.914062 -19.160156 3.128906 -19.132812 2.042969 -19.050781 C 1.632812 -19.023438 1.304688 -18.808594 1.277344 -18.398438 C 0.925781 -13.90625 0.707031 -6.53125 0.652344 -0.734375 C 0.652344 -0.300781 0.980469 -0.0273438 1.414062 0 C 2.695312 0.0820312 6.777344 0.109375 8.738281 0.109375 Z M 8.738281 0.109375 "/></g></g></g><g fill="#e5faed" fill-opacity="1"><g transform="translate(111.057418, 236.955335)"><g><path d="M 8.492188 0.109375 C 9.089844 0.109375 10.640625 0.109375 11.351562 0 C 11.675781 -0.0546875 11.921875 -0.273438 12.058594 -0.515625 C 13.855469 -3.863281 15.59375 -9.089844 16.574219 -13.988281 C 16.65625 -14.371094 16.464844 -14.75 16.003906 -14.804688 C 15.515625 -14.859375 14.480469 -14.914062 13.960938 -14.914062 C 13.472656 -14.914062 12.113281 -14.886719 11.566406 -14.804688 C 11.242188 -14.75 10.96875 -14.480469 10.96875 -14.125 C 10.804688 -10.886719 9.824219 -6.804688 8.953125 -4.628906 C 8.683594 -3.917969 8.273438 -3.917969 8 -4.628906 C 7.105469 -6.777344 6.152344 -10.859375 5.960938 -14.125 C 5.960938 -14.453125 5.714844 -14.75 5.363281 -14.804688 C 4.84375 -14.859375 3.457031 -14.914062 3.019531 -14.914062 C 2.503906 -14.914062 1.414062 -14.859375 0.898438 -14.804688 C 0.460938 -14.75 0.273438 -14.371094 0.355469 -13.988281 C 1.226562 -9.117188 3.046875 -3.863281 4.871094 -0.515625 C 4.980469 -0.273438 5.253906 -0.0546875 5.550781 0 C 6.289062 0.109375 7.8125 0.109375 8.492188 0.109375 Z M 8.492188 0.109375 "/></g></g></g><g fill="#e5faed" fill-opacity="1"><g transform="translate(128.55426, 236.955335)"><g><path d="M 8.738281 0.21875 C 10.777344 0.21875 13.308594 -0.136719 14.75 -1.035156 C 14.996094 -1.199219 15.132812 -1.496094 15.132812 -1.851562 C 15.105469 -2.75 14.996094 -3.917969 14.941406 -4.789062 C 14.859375 -5.550781 14.289062 -5.742188 13.882812 -5.253906 C 12.683594 -4.164062 11.078125 -3.59375 9.417969 -3.59375 C 7.648438 -3.59375 5.714844 -4.546875 5.089844 -5.988281 C 4.761719 -6.476562 5.089844 -6.832031 5.578125 -6.476562 C 6.640625 -5.851562 8 -5.550781 9.390625 -5.550781 C 12.195312 -5.550781 14.75 -7.320312 14.75 -9.878906 C 14.75 -13.28125 12.113281 -15.023438 8.054688 -15.023438 C 3.59375 -15.023438 0.410156 -12.328125 0.410156 -7.566406 C 0.410156 -2.558594 3.648438 0.21875 8.738281 0.21875 Z M 8.082031 -7.675781 C 6.914062 -7.675781 5.171875 -8.136719 5.171875 -9.117188 C 5.171875 -10.507812 6.558594 -11.402344 7.921875 -11.402344 C 9.5 -11.402344 10.125 -10.667969 10.125 -9.5 C 10.125 -8.355469 9.308594 -7.675781 8.082031 -7.675781 Z M 8.082031 -7.675781 "/></g></g></g><g fill="#e5faed" fill-opacity="1"><g transform="translate(144.690549, 236.955335)"><g><path d="M 3.484375 0.109375 C 4.136719 0.109375 5.253906 0.0820312 5.824219 0.0273438 C 6.207031 -0.0273438 6.558594 -0.355469 6.503906 -0.816406 C 6.367188 -2.070312 6.152344 -4.109375 6.152344 -6.015625 C 6.152344 -8.492188 7.867188 -10.015625 9.636719 -10.015625 C 10.832031 -10.015625 11.839844 -9.664062 12.738281 -8.84375 C 13.117188 -8.382812 13.800781 -8.574219 13.855469 -9.253906 C 13.933594 -10.667969 14.015625 -11.949219 14.070312 -13.363281 C 14.070312 -13.746094 13.933594 -14.015625 13.609375 -14.261719 C 13.011719 -14.699219 12.058594 -14.996094 11.078125 -14.996094 C 9.035156 -14.996094 7.511719 -13.773438 6.722656 -11.214844 C 6.558594 -10.695312 6.152344 -10.75 6.152344 -11.324219 C 6.152344 -12.246094 6.289062 -13.011719 6.503906 -13.988281 C 6.613281 -14.398438 6.316406 -14.726562 5.851562 -14.804688 C 5.390625 -14.886719 4.191406 -14.914062 3.675781 -14.914062 C 3.128906 -14.914062 2.257812 -14.886719 1.6875 -14.804688 C 1.332031 -14.75 1.0625 -14.480469 1.035156 -14.125 C 0.707031 -10.207031 0.597656 -6.832031 0.597656 -0.789062 C 0.597656 -0.328125 0.898438 -0.0546875 1.253906 0 C 1.878906 0.0546875 2.964844 0.109375 3.484375 0.109375 Z M 3.484375 0.109375 "/></g></g></g><g fill="#e5faed" fill-opacity="1"><g transform="translate(159.738401, 236.955335)"><g><path d="M 8 6.476562 C 12.710938 6.476562 17.066406 4.191406 17.066406 -1.007812 C 17.066406 -5.308594 16.984375 -8.628906 16.546875 -14.015625 C 16.519531 -14.453125 16.25 -14.75 15.867188 -14.804688 C 15.269531 -14.886719 14.453125 -14.914062 13.882812 -14.914062 C 13.28125 -14.914062 12.195312 -14.886719 11.621094 -14.804688 C 11.214844 -14.75 10.914062 -14.453125 10.96875 -14.015625 C 11.242188 -12.140625 11.402344 -10.015625 11.402344 -8.601562 C 11.402344 -6.234375 10.53125 -4.273438 8.925781 -4.273438 C 6.96875 -4.273438 6.179688 -6.070312 6.179688 -8.410156 C 6.179688 -9.878906 6.503906 -12.113281 6.804688 -14.015625 C 6.886719 -14.453125 6.558594 -14.75 6.152344 -14.804688 C 5.523438 -14.886719 4.382812 -14.914062 3.890625 -14.914062 C 3.429688 -14.914062 2.503906 -14.886719 1.90625 -14.804688 C 1.523438 -14.75 1.277344 -14.480469 1.226562 -14.042969 C 0.925781 -11.511719 0.734375 -8.980469 0.707031 -6.914062 C 0.707031 -2.585938 2.613281 0.0546875 6.476562 0.0546875 C 8.574219 0.0546875 10.289062 -0.816406 11.132812 -2.992188 C 11.296875 -3.511719 11.757812 -3.484375 11.757812 -2.886719 L 11.757812 -2.285156 C 11.757812 -0.0546875 9.335938 2.121094 6.585938 2.121094 C 4.84375 2.121094 2.941406 1.605469 1.6875 0.816406 C 1.253906 0.410156 0.734375 0.679688 0.679688 1.277344 C 0.597656 2.394531 0.515625 3.917969 0.433594 4.898438 C 0.410156 5.308594 0.652344 5.632812 1.035156 5.769531 C 2.777344 6.289062 6.015625 6.476562 8 6.476562 Z M 8 6.476562 "/></g></g></g><g fill="#e5faed" fill-opacity="1"><g transform="translate(177.942729, 236.955335)"><g/></g></g><g fill="#e5faed" fill-opacity="1"><g transform="translate(185.970135, 236.955335)"><g><path d="M 3.183594 0.109375 C 3.917969 0.109375 5.171875 0.0820312 5.824219 0 C 6.152344 -0.0546875 6.449219 -0.273438 6.449219 -0.679688 C 6.367188 -1.6875 6.476562 -2.804688 6.667969 -3.621094 C 6.96875 -4.410156 7.8125 -4.871094 8.953125 -4.898438 L 10.886719 -4.898438 C 12.03125 -4.871094 12.902344 -4.464844 13.171875 -3.621094 C 13.363281 -2.75 13.472656 -1.660156 13.417969 -0.679688 C 13.390625 -0.273438 13.691406 -0.0546875 14.015625 0 C 14.644531 0.0820312 15.921875 0.109375 16.4375 0.109375 C 16.929688 0.109375 18.316406 0.0820312 18.890625 0.0273438 C 19.351562 -0.0273438 19.625 -0.355469 19.488281 -0.816406 C 18.019531 -7.320312 15.488281 -14.371094 13.417969 -18.589844 C 13.28125 -18.835938 13.039062 -18.996094 12.738281 -19.050781 C 11.921875 -19.160156 10.640625 -19.160156 9.90625 -19.160156 C 9.171875 -19.160156 7.894531 -19.160156 7.105469 -19.050781 C 6.804688 -18.996094 6.558594 -18.835938 6.449219 -18.589844 C 4.355469 -14.34375 1.824219 -7.347656 0.355469 -0.816406 C 0.21875 -0.382812 0.488281 -0.0546875 0.980469 0 C 1.523438 0.0546875 2.558594 0.109375 3.183594 0.109375 Z M 9.5 -7.265625 C 8.410156 -7.320312 7.949219 -7.785156 8.191406 -8.601562 C 8.464844 -10.097656 8.871094 -11.730469 9.363281 -13.28125 C 9.6875 -14.234375 10.125 -14.234375 10.480469 -13.28125 C 10.941406 -11.730469 11.402344 -10.097656 11.648438 -8.601562 C 11.921875 -7.8125 11.429688 -7.320312 10.34375 -7.265625 Z M 9.5 -7.265625 "/></g></g></g><g fill="#e5faed" fill-opacity="1"><g transform="translate(206.378543, 236.955335)"><g><path d="M 3.539062 0.109375 C 4.136719 0.109375 5.144531 0.0820312 5.714844 0 C 6.097656 -0.0546875 6.421875 -0.355469 6.367188 -0.789062 C 6.179688 -2.667969 6.125 -4.761719 6.097656 -6.289062 C 6.097656 -8.683594 7.292969 -10.398438 9.035156 -10.398438 C 10.832031 -10.398438 11.949219 -8.683594 12.003906 -6.316406 C 12.003906 -4.953125 11.894531 -2.640625 11.730469 -0.789062 C 11.675781 -0.355469 12.03125 -0.0546875 12.410156 0 C 13.144531 0.0820312 14.070312 0.109375 14.671875 0.109375 C 15.242188 0.109375 16.085938 0.0820312 16.765625 0 C 17.148438 -0.0546875 17.417969 -0.300781 17.417969 -0.761719 C 17.445312 -3.429688 17.363281 -5.878906 17.257812 -7.703125 C 16.957031 -12.167969 14.832031 -15.023438 11.457031 -15.023438 C 9.417969 -15.023438 7.867188 -13.988281 6.75 -11.785156 C 6.503906 -11.269531 6.179688 -11.324219 6.179688 -11.921875 C 6.207031 -12.546875 6.316406 -13.0625 6.585938 -13.960938 C 6.722656 -14.398438 6.367188 -14.75 5.988281 -14.804688 C 5.28125 -14.886719 4.4375 -14.914062 3.835938 -14.914062 C 3.265625 -14.914062 2.367188 -14.886719 1.824219 -14.804688 C 1.441406 -14.75 1.226562 -14.453125 1.171875 -14.042969 C 0.761719 -10.425781 0.625 -7.292969 0.597656 -0.789062 C 0.597656 -0.355469 0.898438 -0.0546875 1.253906 0 C 1.90625 0.0820312 2.914062 0.109375 3.539062 0.109375 Z M 3.539062 0.109375 "/></g></g></g><g fill="#e5faed" fill-opacity="1"><g transform="translate(224.936601, 236.955335)"><g><path d="M 3.511719 -15.949219 C 5.28125 -15.949219 6.316406 -16.929688 6.316406 -18.261719 C 6.316406 -19.625 5.28125 -20.578125 3.511719 -20.578125 C 1.769531 -20.578125 0.734375 -19.625 0.734375 -18.261719 C 0.734375 -16.929688 1.769531 -15.949219 3.511719 -15.949219 Z M 3.59375 0.109375 C 4.054688 0.109375 5.0625 0.0820312 5.6875 0 C 6.042969 -0.0546875 6.339844 -0.355469 6.339844 -0.761719 C 6.339844 -6.585938 6.207031 -10.371094 5.933594 -14.097656 C 5.878906 -14.535156 5.660156 -14.75 5.28125 -14.804688 C 4.789062 -14.886719 3.972656 -14.914062 3.566406 -14.914062 C 3.101562 -14.914062 2.285156 -14.886719 1.742188 -14.804688 C 1.386719 -14.75 1.144531 -14.535156 1.117188 -14.097656 C 0.84375 -10.371094 0.707031 -6.585938 0.707031 -0.789062 C 0.707031 -0.355469 1.007812 -0.0546875 1.359375 0 C 2.015625 0.0820312 3.074219 0.109375 3.59375 0.109375 Z M 3.59375 0.109375 "/></g></g></g><g fill="#e5faed" fill-opacity="1"><g transform="translate(232.555848, 236.955335)"><g><path d="M 3.265625 0.109375 C 3.730469 0.109375 4.871094 0.0820312 5.472656 0 C 5.851562 -0.0546875 6.179688 -0.355469 6.152344 -0.816406 C 6.042969 -2.585938 5.933594 -4.519531 5.988281 -6.234375 C 6.042969 -8.4375 6.859375 -9.878906 7.976562 -9.878906 C 9.226562 -9.878906 10.042969 -8.519531 10.070312 -6.367188 C 10.097656 -4.898438 10.042969 -2.585938 9.933594 -0.816406 C 9.90625 -0.355469 10.234375 -0.0546875 10.640625 0 C 11.296875 0.109375 12.4375 0.109375 12.984375 0.109375 C 13.472656 0.109375 14.371094 0.0820312 14.96875 0 C 15.378906 -0.0820312 15.730469 -0.355469 15.675781 -0.816406 C 15.542969 -2.667969 15.460938 -4.734375 15.460938 -6.316406 C 15.433594 -8.519531 16.332031 -9.878906 17.417969 -9.878906 C 18.671875 -9.878906 19.460938 -8.546875 19.515625 -6.339844 C 19.542969 -5.0625 19.488281 -2.53125 19.351562 -0.816406 C 19.324219 -0.355469 19.652344 -0.0820312 20.058594 0 C 20.710938 0.109375 21.855469 0.109375 22.371094 0.109375 C 22.863281 0.109375 23.761719 0.0820312 24.359375 0 C 24.769531 -0.0820312 25.066406 -0.328125 25.066406 -0.816406 C 24.984375 -3.835938 24.875 -6.316406 24.632812 -8.601562 C 24.25 -13.011719 22.128906 -14.96875 19.625 -14.96875 C 17.636719 -14.96875 16.140625 -13.636719 15.460938 -11.757812 C 15.160156 -11.023438 14.777344 -10.96875 14.507812 -11.757812 C 13.773438 -14.097656 12.328125 -14.96875 10.558594 -14.96875 C 8.820312 -14.96875 7.292969 -13.582031 6.558594 -11.566406 C 6.339844 -10.941406 5.988281 -11.078125 6.015625 -11.675781 C 6.015625 -12.21875 6.207031 -13.226562 6.339844 -14.015625 C 6.449219 -14.453125 6.125 -14.726562 5.714844 -14.804688 C 5.171875 -14.886719 4.109375 -14.914062 3.539062 -14.914062 C 2.914062 -14.914062 2.230469 -14.886719 1.6875 -14.804688 C 1.304688 -14.75 1.0625 -14.480469 1.035156 -14.097656 C 0.707031 -10.34375 0.570312 -6.804688 0.570312 -0.789062 C 0.570312 -0.355469 0.84375 -0.0546875 1.226562 0 C 1.824219 0.0820312 2.832031 0.109375 3.265625 0.109375 Z M 3.265625 0.109375 "/></g></g></g><g fill="#e5faed" fill-opacity="1"><g transform="translate(258.732994, 236.955335)"><g><path d="M 4.871094 0.21875 C 6.804688 0.21875 8.628906 -0.84375 9.5 -2.941406 C 9.714844 -3.429688 10.125 -3.320312 10.070312 -2.804688 C 10.015625 -2.230469 9.933594 -1.441406 9.851562 -1.035156 C 9.742188 -0.488281 10.152344 -0.109375 10.722656 0 C 11.324219 0.0820312 12.273438 0.109375 12.847656 0.109375 C 13.5 0.109375 14.371094 0.0820312 14.914062 0 C 15.351562 -0.0820312 15.648438 -0.382812 15.621094 -0.84375 C 15.542969 -3.484375 15.296875 -7.320312 15.105469 -9.5 C 14.75 -13.039062 12.65625 -15.023438 7.8125 -15.023438 C 5.417969 -15.023438 3.511719 -14.671875 2.257812 -14.261719 C 1.933594 -14.125 1.769531 -13.828125 1.714844 -13.417969 C 1.660156 -12.574219 1.496094 -11.050781 1.496094 -10.179688 C 1.496094 -9.417969 2.121094 -9.117188 2.558594 -9.636719 C 4 -10.722656 6.042969 -11.296875 7.566406 -11.296875 C 9.308594 -11.296875 9.933594 -10.75 9.933594 -10.179688 C 9.933594 -9.335938 8.925781 -9.0625 6.503906 -8.738281 C 2.964844 -8.246094 0.410156 -6.75 0.410156 -3.972656 C 0.410156 -1.007812 2.097656 0.21875 4.871094 0.21875 Z M 7.457031 -3.808594 C 6.207031 -3.808594 5.6875 -4.21875 5.6875 -5.253906 C 5.6875 -6.613281 7.105469 -7.566406 8.574219 -7.566406 C 9.554688 -7.566406 9.933594 -7.023438 9.933594 -6.289062 C 9.933594 -4.707031 8.492188 -3.808594 7.457031 -3.808594 Z M 7.457031 -3.808594 "/></g></g></g><g fill="#e5faed" fill-opacity="1"><g transform="translate(275.467917, 236.955335)"><g><path d="M 3.648438 0.109375 C 4.21875 0.109375 5.199219 0.0820312 5.769531 0 C 6.152344 -0.0546875 6.449219 -0.328125 6.421875 -0.789062 C 6.125 -6.234375 6.261719 -13.800781 6.832031 -18.699219 C 6.886719 -19.105469 6.585938 -19.460938 6.179688 -19.515625 C 5.578125 -19.597656 4.464844 -19.625 3.835938 -19.625 C 3.292969 -19.625 2.421875 -19.597656 1.90625 -19.515625 C 1.523438 -19.433594 1.226562 -19.1875 1.199219 -18.808594 C 0.871094 -14.726562 0.652344 -7.078125 0.652344 -0.789062 C 0.652344 -0.355469 0.925781 -0.0546875 1.304688 0 C 1.960938 0.0820312 3.046875 0.109375 3.648438 0.109375 Z M 3.648438 0.109375 "/></g></g></g><g fill="#e5faed" fill-opacity="1"><g transform="translate(145.856972, 251.708666)"><g><path d="M 2.890625 -2.28125 L 0.5 -2.28125 L 0.5 -3.28125 L 2.890625 -3.28125 Z M 2.890625 -2.28125 "/></g></g></g><g fill="#e5faed" fill-opacity="1"><g transform="translate(151.063448, 251.708666)"><g><path d="M 3.078125 -6.421875 C 4.023438 -6.421875 4.859375 -6.1875 5.578125 -5.71875 L 4.96875 -4.453125 C 4.632812 -4.648438 4.273438 -4.8125 3.890625 -4.9375 C 3.515625 -5.0625 3.195312 -5.125 2.9375 -5.125 C 2.476562 -5.125 2.25 -4.96875 2.25 -4.65625 C 2.25 -4.457031 2.363281 -4.296875 2.59375 -4.171875 C 2.820312 -4.054688 3.097656 -3.953125 3.421875 -3.859375 C 3.753906 -3.773438 4.082031 -3.671875 4.40625 -3.546875 C 4.738281 -3.421875 5.019531 -3.21875 5.25 -2.9375 C 5.476562 -2.664062 5.59375 -2.316406 5.59375 -1.890625 C 5.59375 -1.273438 5.351562 -0.796875 4.875 -0.453125 C 4.40625 -0.117188 3.800781 0.046875 3.0625 0.046875 C 2.53125 0.046875 2.003906 -0.0390625 1.484375 -0.21875 C 0.972656 -0.394531 0.53125 -0.644531 0.15625 -0.96875 L 0.78125 -2.203125 C 1.101562 -1.921875 1.476562 -1.691406 1.90625 -1.515625 C 2.34375 -1.335938 2.734375 -1.25 3.078125 -1.25 C 3.335938 -1.25 3.539062 -1.296875 3.6875 -1.390625 C 3.832031 -1.484375 3.90625 -1.625 3.90625 -1.8125 C 3.90625 -1.976562 3.820312 -2.117188 3.65625 -2.234375 C 3.488281 -2.359375 3.28125 -2.445312 3.03125 -2.5 C 2.78125 -2.5625 2.507812 -2.640625 2.21875 -2.734375 C 1.925781 -2.835938 1.65625 -2.945312 1.40625 -3.0625 C 1.164062 -3.175781 0.960938 -3.359375 0.796875 -3.609375 C 0.628906 -3.859375 0.546875 -4.160156 0.546875 -4.515625 C 0.546875 -5.097656 0.773438 -5.5625 1.234375 -5.90625 C 1.703125 -6.25 2.316406 -6.421875 3.078125 -6.421875 Z M 3.078125 -6.421875 "/></g></g></g><g fill="#e5faed" fill-opacity="1"><g transform="translate(158.718635, 251.708666)"><g><path d="M 4.859375 -1.171875 L 2.078125 -1.171875 L 1.609375 0 L -0.046875 0 L 2.703125 -6.359375 L 4.359375 -6.359375 L 7.03125 0 L 5.3125 0 Z M 4.390625 -2.390625 L 3.484375 -4.75 L 2.546875 -2.390625 Z M 4.390625 -2.390625 "/></g></g></g><g fill="#e5faed" fill-opacity="1"><g transform="translate(167.516551, 251.708666)"><g><path d="M 6.5 0 L 5.078125 0 L 2.15625 -3.90625 L 2.15625 0 L 0.640625 0 L 0.640625 -6.359375 L 2.0625 -6.359375 L 5 -2.4375 L 5 -6.359375 L 6.5 -6.359375 Z M 6.5 0 "/></g></g></g><g fill="#e5faed" fill-opacity="1"><g transform="translate(176.45957, 251.708666)"><g><path d="M 3.609375 -6.40625 C 4.085938 -6.40625 4.550781 -6.304688 5 -6.109375 C 5.457031 -5.921875 5.847656 -5.664062 6.171875 -5.34375 L 5.234375 -4.234375 C 5.023438 -4.484375 4.773438 -4.679688 4.484375 -4.828125 C 4.203125 -4.984375 3.921875 -5.0625 3.640625 -5.0625 C 3.140625 -5.0625 2.71875 -4.882812 2.375 -4.53125 C 2.039062 -4.175781 1.875 -3.738281 1.875 -3.21875 C 1.875 -2.6875 2.039062 -2.238281 2.375 -1.875 C 2.71875 -1.519531 3.140625 -1.34375 3.640625 -1.34375 C 3.910156 -1.34375 4.1875 -1.410156 4.46875 -1.546875 C 4.757812 -1.679688 5.015625 -1.863281 5.234375 -2.09375 L 6.1875 -1.09375 C 5.84375 -0.738281 5.429688 -0.453125 4.953125 -0.234375 C 4.484375 -0.0234375 4.019531 0.078125 3.5625 0.078125 C 2.601562 0.078125 1.804688 -0.234375 1.171875 -0.859375 C 0.535156 -1.484375 0.21875 -2.265625 0.21875 -3.203125 C 0.21875 -4.109375 0.539062 -4.867188 1.1875 -5.484375 C 1.832031 -6.097656 2.640625 -6.40625 3.609375 -6.40625 Z M 3.609375 -6.40625 "/></g></g></g><g fill="#e5faed" fill-opacity="1"><g transform="translate(184.550077, 251.708666)"><g><path d="M 5.5 -5.0625 L 3.578125 -5.0625 L 3.578125 0 L 1.953125 0 L 1.953125 -5.0625 L 0.0625 -5.0625 L 0.0625 -6.359375 L 5.5 -6.359375 Z M 5.5 -5.0625 "/></g></g></g><g fill="#e5faed" fill-opacity="1"><g transform="translate(191.905972, 251.708666)"><g><path d="M 6.359375 -6.359375 L 6.359375 -2.671875 C 6.359375 -1.828125 6.097656 -1.15625 5.578125 -0.65625 C 5.054688 -0.164062 4.347656 0.078125 3.453125 0.078125 C 2.554688 0.078125 1.84375 -0.164062 1.3125 -0.65625 C 0.789062 -1.15625 0.53125 -1.828125 0.53125 -2.671875 L 0.53125 -6.359375 L 2.140625 -6.359375 L 2.140625 -2.671875 C 2.140625 -2.242188 2.257812 -1.90625 2.5 -1.65625 C 2.75 -1.40625 3.070312 -1.28125 3.46875 -1.28125 C 3.851562 -1.28125 4.160156 -1.40625 4.390625 -1.65625 C 4.628906 -1.90625 4.75 -2.242188 4.75 -2.671875 L 4.75 -6.359375 Z M 6.359375 -6.359375 "/></g></g></g><g fill="#e5faed" fill-opacity="1"><g transform="translate(200.595055, 251.708666)"><g><path d="M 4.859375 -1.171875 L 2.078125 -1.171875 L 1.609375 0 L -0.046875 0 L 2.703125 -6.359375 L 4.359375 -6.359375 L 7.03125 0 L 5.3125 0 Z M 4.390625 -2.390625 L 3.484375 -4.75 L 2.546875 -2.390625 Z M 4.390625 -2.390625 "/></g></g></g><g fill="#e5faed" fill-opacity="1"><g transform="translate(209.392968, 251.708666)"><g><path d="M 4.46875 0 L 3.515625 -1.78125 L 2.25 -1.78125 L 2.25 0 L 0.640625 0 L 0.640625 -6.359375 L 3.484375 -6.359375 C 4.316406 -6.359375 4.960938 -6.164062 5.421875 -5.78125 C 5.890625 -5.394531 6.125 -4.847656 6.125 -4.140625 C 6.125 -3.160156 5.738281 -2.476562 4.96875 -2.09375 L 6.296875 0 Z M 2.25 -3.0625 L 3.484375 -3.0625 C 3.828125 -3.0625 4.09375 -3.144531 4.28125 -3.3125 C 4.476562 -3.488281 4.578125 -3.742188 4.578125 -4.078125 C 4.578125 -4.410156 4.476562 -4.660156 4.28125 -4.828125 C 4.09375 -4.992188 3.828125 -5.078125 3.484375 -5.078125 L 2.25 -5.078125 Z M 2.25 -3.0625 "/></g></g></g><g fill="#e5faed" fill-opacity="1"><g transform="translate(217.77369, 251.708666)"><g><path d="M 3.90625 -2.046875 L 3.90625 0 L 2.3125 0 L 2.3125 -2 L -0.046875 -6.359375 L 1.578125 -6.359375 L 3.109375 -3.578125 L 4.609375 -6.359375 L 6.21875 -6.359375 Z M 3.90625 -2.046875 "/></g></g></g><g fill="#e5faed" fill-opacity="1"><g transform="translate(225.75537, 251.708666)"><g><path d="M 2.890625 -2.28125 L 0.5 -2.28125 L 0.5 -3.28125 L 2.890625 -3.28125 Z M 2.890625 -2.28125 "/></g></g></g></svg>